<?xml version="1.0" encoding="iso-8859-1"?>
<!-- Generator: Adobe Illustrator 19.0.0, SVG Export Plug-In . SVG Version: 6.00 Build 0)  -->
<svg version="1.1" id="Capa_1" xmlns="http://www.w3.org/2000/svg" xmlns:xlink="http://www.w3.org/1999/xlink" x="0px" y="0px"
	 viewBox="0 0 512 512" style="enable-background:new 0 0 512 512;" xml:space="preserve">
<g>
	<g>
		<path d="M354.5,267.499h-2.634c6.313-7.418,10.134-17.019,10.134-27.5c0-4.142-3.358-7.5-7.5-7.5H347v-7.5
			c0-12.407-10.093-22.5-22.5-22.5c-4.22,0-8.263,1.164-11.75,3.307c-3.487-2.144-7.53-3.307-11.75-3.307
			c-12.407,0-22.5,10.093-22.5,22.5v7.5H271c-4.142,0-7.5,3.358-7.5,7.5c0,10.481,3.822,20.082,10.134,27.5H248.5v-27.5
			c0-34.684-26.298-63.329-60-67.073v-7.927c0-4.142-3.358-7.5-7.5-7.5c-4.142,0-7.5,3.358-7.5,7.5v7.927
			c-33.702,3.744-60,32.39-60,67.073v27.5H88.366c6.313-7.418,10.134-17.019,10.134-27.5c0-4.142-3.358-7.5-7.5-7.5h-7.5v-7.5
			c0-12.407-10.093-22.5-22.5-22.5c-4.22,0-8.263,1.164-11.75,3.307c-3.487-2.144-7.53-3.307-11.75-3.307
			c-12.407,0-22.5,10.093-22.5,22.5v7.5H7.5c-4.142,0-7.5,3.358-7.5,7.5c0,10.481,3.822,20.082,10.134,27.5H7.5
			c-4.142,0-7.5,3.358-7.5,7.5v122c0,4.142,3.358,7.5,7.5,7.5H30v67.5c0,4.142,3.358,7.5,7.5,7.5c4.142,0,7.5-3.358,7.5-7.5v-22.5
			h272v22.5c0,4.142,3.358,7.5,7.5,7.5c4.142,0,7.5-3.358,7.5-7.5v-67.5h22.5c4.142,0,7.5-3.358,7.5-7.5v-122
			C362,270.857,358.642,267.499,354.5,267.499z M293.5,224.999c0-4.136,3.364-7.5,7.5-7.5c2.294,0,4.436,1.04,5.874,2.854
			c1.423,1.794,3.587,2.839,5.876,2.839s4.453-1.045,5.876-2.839c1.438-1.813,3.58-2.854,5.874-2.854c4.136,0,7.5,3.364,7.5,7.5v7.5
			h-38.5V224.999z M345.961,247.499c-3.272,11.53-13.896,20-26.46,20H306c-12.565,0-23.188-8.47-26.46-20H345.961z M181,187.499
			c26.402,0,48.304,19.593,51.956,45H129.044C132.696,207.092,154.598,187.499,181,187.499z M128.5,247.499h105v20h-105V247.499z
			 M30,224.999c0-4.136,3.364-7.5,7.5-7.5c2.294,0,4.436,1.04,5.874,2.854c1.423,1.794,3.587,2.839,5.876,2.839
			s4.453-1.045,5.876-2.839c1.438-1.813,3.58-2.854,5.874-2.854c4.136,0,7.5,3.364,7.5,7.5v7.5H30V224.999z M82.46,247.499
			c-3.272,11.53-13.896,20-26.46,20H42.5c-12.565,0-23.188-8.47-26.46-20H82.46z M317,434.499H45v-30h272V434.499z M347,297.499
			h-22.5c-4.142,0-7.5,3.358-7.5,7.5c0,4.142,3.358,7.5,7.5,7.5H347v77H15v-77h279.5c4.142,0,7.5-3.358,7.5-7.5
			c0-4.142-3.358-7.5-7.5-7.5H15v-15h332V297.499z"/>
	</g>
</g>
<g>
	<g>
		<path d="M512,119.999c0-6.88-1.888-13.615-5.46-19.477l-32.181-52.808c-0.124-0.204-0.258-0.398-0.398-0.585
			c-9.298-14.78-25.746-24.63-44.461-24.63c-28.949,0-52.5,23.551-52.5,52.5v55c0,7.875,3.332,14.982,8.655,20
			c-3.565,3.361-6.232,7.66-7.607,12.5H306c-4.136,0-7.5-3.364-7.5-7.5c0-4.136,3.364-7.5,7.5-7.5h13.5
			c23.435,0,42.5-19.065,42.5-42.5c0-4.142-3.358-7.5-7.5-7.5H347v-7.5c0-12.407-10.093-22.5-22.5-22.5
			c-4.22,0-8.263,1.164-11.75,3.307c-3.487-2.144-7.53-3.307-11.75-3.307c-12.407,0-22.5,10.093-22.5,22.5v7.5H271
			c-4.142,0-7.5,3.358-7.5,7.5c0,16.602,9.574,31.001,23.486,37.992c-2.204,3.478-3.486,7.594-3.486,12.008
			c0,12.407,10.093,22.5,22.5,22.5h71v152.5c0,4.142,3.358,7.5,7.5,7.5h7.5v129.094l-24.872,8.291
			c-3.93,1.31-6.053,5.557-4.744,9.487c1.048,3.143,3.974,5.13,7.114,5.13c0.786,0,1.586-0.125,2.373-0.387l30-10
			c3.062-1.021,5.128-3.887,5.128-7.115v-134.5h46.088v129.094l-24.872,8.291c-3.93,1.31-6.053,5.557-4.744,9.487
			c1.048,3.143,3.974,5.13,7.114,5.13c0.786,0,1.586-0.125,2.373-0.387l30-10c3.062-1.021,5.128-3.887,5.128-7.115v-134.5H489.5
			c4.142,0,7.5-3.358,7.5-7.5v-50.335c0-15.471-5.307-30.417-15-42.406v-67.259c0-4.604-1.143-8.944-3.151-12.76
			C497.484,155.076,512,139.205,512,119.999z M293.5,89.999c0-4.136,3.364-7.5,7.5-7.5c2.294,0,4.436,1.04,5.874,2.854
			c1.423,1.794,3.587,2.839,5.876,2.839s4.453-1.045,5.876-2.839c1.438-1.813,3.58-2.854,5.874-2.854c4.136,0,7.5,3.364,7.5,7.5v7.5
			h-38.5V89.999z M279.54,112.499h66.421c-3.272,11.53-13.896,20-26.46,20H306C293.435,132.499,282.812,124.029,279.54,112.499z
			 M429.5,37.499c17.96,0,33.005,12.694,36.651,29.58c-20.154-2-38.58-11.212-52.297-26.147
			C418.62,38.734,423.917,37.499,429.5,37.499z M401.699,49.86c16.692,18.803,39.576,30.244,64.607,32.299
			c-3.352,17.264-18.577,30.34-36.806,30.34c-20.678,0-37.5-16.822-37.5-37.5C392,65.336,395.675,56.516,401.699,49.86z
			 M392,169.999c0-6.893,5.607-12.5,12.5-12.5h50c6.893,0,12.5,5.607,12.5,12.5v62.5h-75V169.999z M482,279.664v42.835h-90v-75
			h78.961C478.094,256.683,482,267.978,482,279.664z M474.5,142.499h-20h-50c-6.893,0-12.5-5.607-12.5-12.5v-18.308
			c9.537,9.745,22.821,15.808,37.5,15.808c24.876,0,45.751-17.396,51.137-40.658l13.094,21.488c2.139,3.509,3.269,7.544,3.269,11.67
			C497,132.406,486.907,142.499,474.5,142.499z"/>
	</g>
</g>
<g>
</g>
<g>
</g>
<g>
</g>
<g>
</g>
<g>
</g>
<g>
</g>
<g>
</g>
<g>
</g>
<g>
</g>
<g>
</g>
<g>
</g>
<g>
</g>
<g>
</g>
<g>
</g>
<g>
</g>
</svg>
