<?xml version="1.0" encoding="iso-8859-1"?>
<!-- Generator: Adobe Illustrator 19.0.0, SVG Export Plug-In . SVG Version: 6.00 Build 0)  -->
<svg version="1.1" id="Capa_1" xmlns="http://www.w3.org/2000/svg" xmlns:xlink="http://www.w3.org/1999/xlink" x="0px" y="0px"
	 viewBox="0 0 512.001 512.001" style="enable-background:new 0 0 512.001 512.001;" xml:space="preserve">
<g>
	<g>
		<path d="M262.499,154.981H255v-51.284c8.728-3.096,14.998-11.431,14.998-21.207V67.492c0-12.405-10.092-22.497-22.497-22.497
			c-12.405,0-22.497,10.092-22.497,22.497V82.49c0,9.777,6.27,18.112,14.998,21.207v58.783c0,4.142,3.358,7.499,7.499,7.499h14.998
			c4.135,0,7.499,3.364,7.499,7.499s-3.364,7.499-7.499,7.499h-53.541c-3.274-11.527-13.887-19.998-26.449-19.998h-64.992
			c-12.463,0-23.01,8.338-26.372,19.727c-42.515-3.268-76.116-38.881-76.116-82.219c0-4.142-3.358-7.499-7.499-7.499
			s-7.499,3.358-7.499,7.499c0,51.233,39.724,93.36,89.989,97.202v182.763c0,4.141,3.358,7.499,7.499,7.499h7.499v99.144
			l-24.869,8.29c-3.93,1.31-6.052,5.556-4.743,9.486c1.048,3.143,3.974,5.129,7.113,5.129c0.786,0,1.586-0.125,2.373-0.387
			l29.996-9.999c3.062-1.021,5.127-3.886,5.127-7.114V389.952h59.993v104.549c0,3.228,2.066,6.093,5.127,7.114l29.996,9.999
			c0.787,0.262,1.586,0.387,2.373,0.387c3.14,0,6.065-1.988,7.113-5.129c1.312-3.931-0.812-8.177-4.741-9.487l-24.869-8.29v-99.143
			h7.499c4.141,0,7.499-3.358,7.499-7.499V199.975h52.494c12.405,0,22.497-10.092,22.497-22.497S274.905,154.981,262.499,154.981z
			 M247.502,89.989c-4.135,0-7.499-3.364-7.499-7.499V67.492c0-4.135,3.364-7.499,7.499-7.499s7.499,3.364,7.499,7.499V82.49
			C255.001,86.625,251.638,89.989,247.502,89.989z M195.009,374.954H105.02v-74.991h89.989V374.954z M195.009,284.965H105.02
			v-92.489c0-6.892,5.606-12.498,12.498-12.498h64.992c6.892,0,12.498,5.606,12.498,12.498V284.965z"/>
	</g>
</g>
<g>
	<g>
		<path d="M191.763,43.705c8.728-3.096,14.998-11.431,14.998-21.207C206.761,10.092,196.669,0,184.264,0h-68.5
			c-12.405,0-22.497,10.092-22.497,22.497c0,9.777,6.269,18.112,14.998,21.207v21.977c-6.948,9.115-10.745,20.301-10.745,31.806
			c0,28.945,23.548,52.494,52.494,52.494s52.494-23.548,52.494-52.494c0-11.505-3.797-22.691-10.745-31.806V43.705z
			 M150.014,134.983c-20.675,0-37.495-16.82-37.495-37.495c0-7.779,2.432-15.354,6.902-21.662h61.185
			c4.47,6.308,6.902,13.883,6.902,21.662C187.509,118.163,170.689,134.983,150.014,134.983z M123.263,60.828V44.994h53.501v15.833
			H123.263z M184.264,29.996h-68.5c-4.135,0-7.499-3.364-7.499-7.499s3.364-7.499,7.499-7.499h68.5c4.135,0,7.499,3.364,7.499,7.499
			S188.399,29.996,184.264,29.996z"/>
	</g>
</g>
<g>
	<g>
		<path d="M172.511,314.961h-44.994c-4.141,0-7.499,3.358-7.499,7.499s3.358,7.499,7.499,7.499h44.994
			c4.142,0,7.499-3.358,7.499-7.499S176.653,314.961,172.511,314.961z"/>
	</g>
</g>
<g>
	<g>
		<circle cx="172.509" cy="202.475" r="7.499"/>
	</g>
</g>
<g>
	<g>
		<circle cx="172.509" cy="232.471" r="7.499"/>
	</g>
</g>
<g>
	<g>
		<circle cx="172.509" cy="262.468" r="7.499"/>
	</g>
</g>
<g>
	<g>
		<circle cx="277.496" cy="322.46" r="7.499"/>
	</g>
</g>
<g>
	<g>
		<circle cx="307.493" cy="322.46" r="7.499"/>
	</g>
</g>
<g>
	<g>
		<circle cx="459.474" cy="322.46" r="7.499"/>
	</g>
</g>
<g>
	<g>
		<path d="M504.47,254.969h-84.78c0.833-2.348,1.29-4.87,1.29-7.499v-62.492h7.499c4.141,0,7.499-3.358,7.499-7.499
			s-3.358-7.499-7.499-7.499h-7.499v-7.499c0-12.405-10.092-22.497-22.497-22.497h-22.497v-7.499c0-4.141-3.358-7.499-7.499-7.499
			s-7.499,3.358-7.499,7.499v7.499h-22.497c-12.405,0-22.497,10.092-22.497,22.497v7.499h-8.499c-4.142,0-7.499,3.358-7.499,7.499
			s3.358,7.499,7.499,7.499h8.499v62.492c0,2.629,0.458,5.152,1.29,7.499h-84.78c-4.141,0-7.499,3.358-7.499,7.499v29.996
			c0,4.142,3.358,7.499,7.499,7.499h7.499v204.475c0,4.141,3.358,7.499,7.499,7.499c4.141,0,7.499-3.358,7.499-7.499v-7.499h226.972
			v7.499c0,4.141,3.358,7.499,7.499,7.499s7.499-3.358,7.499-7.499V299.963h7.499c4.141,0,7.499-3.358,7.499-7.499v-29.996
			C511.97,258.326,508.612,254.969,504.47,254.969z M330.992,162.48c0-4.135,3.364-7.499,7.499-7.499h59.993
			c4.135,0,7.499,3.364,7.499,7.499v7.499h-74.991V162.48z M330.992,184.977h74.991v62.492c0,4.135-3.364,7.499-7.499,7.499
			c-0.01,0-59.984,0-59.993,0c-4.135,0-7.499-3.364-7.499-7.499V184.977z M481.973,481.941H255.001V359.904h196.976v92.042H284.997
			v-69.544c0-4.141-3.358-7.499-7.499-7.499c-4.142,0-7.499,3.358-7.499,7.499v77.044c0,4.141,3.358,7.499,7.499,7.499h181.978
			c4.141,0,7.499-3.358,7.499-7.499v-99.541h14.998V481.941z M481.973,344.906H255.001v-44.943h226.972V344.906z M496.971,284.965
			h-7.489c-0.019,0-241.97,0-241.97,0c-0.019,0-7.509,0-7.509,0v-14.998h256.968V284.965z"/>
	</g>
</g>
<g>
	<g>
		<path d="M429.48,374.902H307.495c-4.142,0-7.499,3.358-7.499,7.499s3.358,7.499,7.499,7.499H429.48
			c4.141,0,7.499-3.358,7.499-7.499S433.621,374.902,429.48,374.902z"/>
	</g>
</g>
<g>
</g>
<g>
</g>
<g>
</g>
<g>
</g>
<g>
</g>
<g>
</g>
<g>
</g>
<g>
</g>
<g>
</g>
<g>
</g>
<g>
</g>
<g>
</g>
<g>
</g>
<g>
</g>
<g>
</g>
</svg>
